<svg width="16" height="29" viewBox="0 0 16 29" fill="none" xmlns="http://www.w3.org/2000/svg">
<path d="M12.0847 0.710136L0.674995 12.7835C0.461113 13.008 0.291347 13.2751 0.175495 13.5693C0.0596447 13.8636 9.53674e-07 14.1792 9.53674e-07 14.4979C9.53674e-07 14.8167 0.0596447 15.1323 0.175495 15.4266C0.291347 15.7208 0.461113 15.9879 0.674995 16.2124L12.0847 28.2857C12.2968 28.5121 12.5492 28.6917 12.8273 28.8143C13.1053 28.9369 13.4036 29 13.7048 29C14.0061 29 14.3043 28.9369 14.5824 28.8143C14.8605 28.6917 15.1129 28.5121 15.325 28.2857C15.5389 28.0613 15.7087 27.7942 15.8245 27.5C15.9404 27.2057 16 26.8901 16 26.5713C16 26.2526 15.9404 25.9369 15.8245 25.6427C15.7087 25.3484 15.5389 25.0814 15.325 24.8569L5.51269 14.4979L15.325 4.13898C15.7547 3.68428 15.9961 3.06759 15.9961 2.42456C15.9961 2.10616 15.9368 1.79088 15.8217 1.49672C15.7065 1.20256 15.5378 0.935277 15.325 0.710136C14.8953 0.255444 14.3125 0 13.7048 0C13.4039 0 13.106 0.0627137 12.828 0.184559C12.55 0.306405 12.2974 0.484995 12.0847 0.710136Z" fill="#222222"/>
</svg>
