<svg width="16" height="29" viewBox="0 0 16 29" fill="none" xmlns="http://www.w3.org/2000/svg">
<path d="M3.91534 0.710136L15.325 12.7835C15.5389 13.008 15.7087 13.2751 15.8245 13.5693C15.9404 13.8636 16 14.1792 16 14.4979C16 14.8167 15.9404 15.1323 15.8245 15.4266C15.7087 15.7208 15.5389 15.9879 15.325 16.2124L3.91534 28.2857C3.7032 28.5121 3.45082 28.6917 3.17274 28.8143C2.89467 28.9369 2.59641 29 2.29517 29C1.99392 29 1.69566 28.9369 1.41759 28.8143C1.13951 28.6917 0.887128 28.5121 0.674992 28.2857C0.46111 28.0613 0.291348 27.7942 0.175497 27.5C0.0596463 27.2057 0 26.8901 0 26.5713C0 26.2526 0.0596463 25.9369 0.175497 25.6427C0.291348 25.3484 0.46111 25.0814 0.674992 24.8569L10.4873 14.4979L0.674992 4.13898C0.245296 3.68428 0.00389544 3.06759 0.00389544 2.42456C0.00389544 2.10616 0.0631594 1.79088 0.178307 1.49672C0.293454 1.20256 0.462228 0.935277 0.674992 0.710136C1.10469 0.255444 1.68748 0 2.29517 0C2.59606 0 2.89401 0.0627137 3.172 0.184559C3.44999 0.306405 3.70257 0.484995 3.91534 0.710136Z" fill="#222222"/>
</svg>
