<svg width="24" height="24" viewBox="0 0 24 24" fill="none" xmlns="http://www.w3.org/2000/svg">
<path d="M10.1351 21L9.77306 18.108C9.45372 18.0113 9.10872 17.86 8.73806 17.654C8.36672 17.4473 8.05106 17.226 7.79106 16.99L5.12306 18.125L3.25806 14.875L5.56406 13.136C5.53406 12.956 5.50972 12.77 5.49106 12.578C5.47106 12.386 5.46106 12.1997 5.46106 12.019C5.46106 11.851 5.47106 11.6743 5.49106 11.489C5.50972 11.3037 5.53406 11.095 5.56406 10.863L3.25806 9.126L5.12306 5.914L7.77106 7.03C8.06972 6.78133 8.39306 6.557 8.74106 6.357C9.08772 6.157 9.42539 6.00233 9.75406 5.893L10.1341 3H13.8661L14.2271 5.912C14.6104 6.04667 14.9491 6.201 15.2431 6.375C15.5371 6.549 15.8401 6.767 16.1521 7.029L18.8771 5.914L20.7421 9.125L18.3601 10.921C18.4147 11.1277 18.4454 11.3173 18.4521 11.49C18.4587 11.6627 18.4621 11.8327 18.4621 12C18.4621 12.1553 18.4554 12.319 18.4421 12.491C18.4294 12.6637 18.4001 12.8723 18.3541 13.117L20.6981 14.875L18.8331 18.125L16.1521 16.971C15.8407 17.233 15.5274 17.4573 15.2121 17.644C14.8967 17.8307 14.5684 17.979 14.2271 18.089L13.8661 21H10.1351ZM11.9731 14.5C12.6704 14.5 13.2614 14.2577 13.7461 13.773C14.2307 13.2883 14.4731 12.6973 14.4731 12C14.4731 11.3027 14.2307 10.7117 13.7461 10.227C13.2614 9.74233 12.6704 9.5 11.9731 9.5C11.2717 9.5 10.6797 9.74233 10.1971 10.227C9.71439 10.7117 9.47306 11.3027 9.47306 12C9.47306 12.6973 9.71439 13.2883 10.1971 13.773C10.6797 14.2577 11.2717 14.5 11.9731 14.5Z" fill="white"/>
</svg>
